<svg xmlns="http://www.w3.org/2000/svg" viewBox="0 0 1920 1080" preserveAspectRatio="xMidYMid slice" role="img" aria-label="EuroPeptide Pro research peptide laboratory — molecular chain pattern">
  <defs>
    <linearGradient id="bg" x1="0" y1="0" x2="1" y2="1">
      <stop offset="0" stop-color="#0b1220"/>
      <stop offset="1" stop-color="#0f172a"/>
    </linearGradient>
    <radialGradient id="glow" cx="0.8" cy="0.3" r="0.7">
      <stop offset="0" stop-color="#38bdf8" stop-opacity="0.25"/>
      <stop offset="1" stop-color="#38bdf8" stop-opacity="0"/>
    </radialGradient>
    <pattern id="hex" width="120" height="104" patternUnits="userSpaceOnUse">
      <path d="M60 4 L114 34 L114 94 L60 124 L6 94 L6 34 Z" fill="none" stroke="#1e293b" stroke-width="1.2"/>
    </pattern>
  </defs>
  <rect width="1920" height="1080" fill="url(#bg)"/>
  <rect width="1920" height="1080" fill="url(#hex)" opacity="0.7"/>
  <rect width="1920" height="1080" fill="url(#glow)"/>
  <g stroke="#22d3ee" stroke-width="2" fill="#22d3ee" opacity="0.55">
    <circle cx="320" cy="420" r="8"/>
    <circle cx="480" cy="360" r="8"/>
    <circle cx="640" cy="440" r="8"/>
    <circle cx="800" cy="380" r="8"/>
    <circle cx="960" cy="460" r="8"/>
    <line x1="320" y1="420" x2="480" y2="360"/>
    <line x1="480" y1="360" x2="640" y2="440"/>
    <line x1="640" y1="440" x2="800" y2="380"/>
    <line x1="800" y1="380" x2="960" y2="460"/>
  </g>
  <g fill="#0ea5e9" opacity="0.15">
    <circle cx="1600" cy="220" r="180"/>
    <circle cx="1720" cy="820" r="220"/>
  </g>
</svg>
